<?xml version="1.0" encoding="UTF-8"?>

<svg id="Ebene_2" xmlns="http://www.w3.org/2000/svg" viewBox="0 0 49.89 49.89">
    <defs>
        <style>
            .cls-1{fill:#fff;}.cls-2{fill:#ccb544;}
        </style>
    </defs>
    <g id="Ebene_3">
        <rect class="cls-2" width="49.89" height="49.89" rx="1.76" ry="1.76"/>
        <path class="cls-1" d="M22.37,28.99v-.53c0-1.94,.77-3.36,2.92-5.28,1.21-1.08,1.57-1.95,1.57-2.98,0-1.11-.64-2-2.04-2-1.63,0-2.19,1.12-2.34,2.53h-4.08c.14-2.43,1.68-5.76,6.5-5.73,4.75,.03,6.15,3.1,6.15,5.35,0,1.82-.59,3.08-2.69,5.02-1.24,1.17-1.65,2.11-1.65,3.31v.31h-4.34Zm0,6.3v-4.81h4.34v4.81h-4.34Z"/>
    </g>
</svg>